<?xml version="1.0" encoding="UTF-8"?>
<svg version="1.1" xmlns="http://www.w3.org/2000/svg" width="500" height="500">
<path d="M0 0 C165 0 330 0 500 0 C500 165 500 330 500 500 C335 500 170 500 0 500 C0 335 0 170 0 0 Z " fill="#070707" transform="translate(0,0)"/>
<path d="M0 0 C0.95108643 -0.00938095 1.90217285 -0.0187619 2.88208008 -0.02842712 C4.41964966 -0.01157616 4.41964966 -0.01157616 5.98828125 0.00561523 C7.56935669 0.00343239 7.56935669 0.00343239 9.18237305 0.00120544 C11.4116492 0.00286597 13.64093663 0.01444433 15.87011719 0.03515625 C19.28760338 0.06409739 22.70353793 0.05577059 26.12109375 0.04272461 C28.28516381 0.04896219 30.44922896 0.05735328 32.61328125 0.06811523 C34.15085083 0.06371178 34.15085083 0.06371178 35.71948242 0.05921936 C36.67056885 0.07190353 37.62165527 0.08458771 38.6015625 0.09765625 C39.85706909 0.10576073 39.85706909 0.10576073 41.13793945 0.11402893 C43.9042196 0.6098727 44.61904254 1.26076326 46.30078125 3.50170898 C46.68554211 6.19784069 46.68554211 6.19784069 46.69950867 9.51908875 C46.71204681 10.77692169 46.72458496 12.03475464 46.73750305 13.33070374 C46.73632895 14.72714259 46.73486977 16.12358123 46.7331543 17.52001953 C46.742169 18.98843208 46.7524955 20.45683708 46.76403809 21.92523193 C46.79166877 25.91461622 46.80090078 29.90385797 46.80689216 33.89332557 C46.8162601 38.06141315 46.84246215 42.22939359 46.86689758 46.39741516 C46.91060988 54.29151317 46.93912774 62.18559045 46.96222097 70.07977277 C46.98924734 79.06643173 47.03316038 88.05298317 47.07850969 97.03956544 C47.17142368 115.52688991 47.24307343 134.0142428 47.30078125 152.50170898 C48.0645961 152.10707458 48.0645961 152.10707458 48.84384155 151.70446777 C54.12939708 148.97462297 59.41783547 146.25042772 64.70800781 143.52954102 C66.68369342 142.51244324 68.65863155 141.49389218 70.6328125 140.47387695 C73.46550816 139.01060194 76.30082367 137.55252156 79.13671875 136.09545898 C80.46647232 135.40643494 80.46647232 135.40643494 81.8230896 134.70349121 C82.64378937 134.28305542 83.46448914 133.86261963 84.31005859 133.42944336 C85.03397797 133.05638062 85.75789734 132.68331787 86.50375366 132.2989502 C88.30078125 131.50170898 88.30078125 131.50170898 90.30078125 131.50170898 C90.2918988 130.83407532 90.28301636 130.16644165 90.27386475 129.47857666 C90.18543652 122.53585361 90.12506549 115.59329027 90.08105469 108.65014648 C90.0609275 106.05828352 90.03362309 103.46646603 89.99902344 100.87475586 C89.95055624 97.1513345 89.92782309 93.42851299 89.91015625 89.70483398 C89.88951111 88.54429504 89.86886597 87.3837561 89.84759521 86.18804932 C89.84729309 85.10723083 89.84699097 84.02641235 89.84667969 82.9128418 C89.83779724 81.96242004 89.82891479 81.01199829 89.81976318 80.03277588 C90.45509075 76.68974847 91.60248591 75.52653774 94.30078125 73.50170898 C96.49449158 72.98704529 96.49449158 72.98704529 98.89819336 72.96826172 C100.25496437 72.94450722 100.25496437 72.94450722 101.6391449 72.92027283 C102.60900833 72.9252327 103.57887177 72.93019257 104.578125 72.93530273 C105.58162491 72.92910416 106.58512482 72.92290558 107.61903381 72.91651917 C109.7397464 72.90942028 111.86051471 72.91259617 113.98120117 72.92529297 C117.22353925 72.939146 120.46298439 72.90510302 123.70507812 72.86694336 C125.76692779 72.86599203 127.82878106 72.86785172 129.890625 72.87280273 C131.3423838 72.85291542 131.3423838 72.85291542 132.82347107 72.83262634 C137.34743417 72.89509351 139.63448302 73.03603013 143.42089844 75.68237305 C145.55855632 78.88830464 145.89101845 80.42683754 145.7890625 84.23999023 C145.77294922 85.30668945 145.75683594 86.37338867 145.74023438 87.47241211 C145.67739258 89.12660156 145.67739258 89.12660156 145.61328125 90.81420898 C145.57944336 92.49740234 145.57944336 92.49740234 145.54492188 94.21459961 C145.48611901 96.97833434 145.40398526 99.73933452 145.30078125 102.50170898 C146.07566895 102.11426514 146.85055664 101.72682129 147.64892578 101.32763672 C152.47167969 98.91625977 157.29443359 96.50488281 162.1171875 94.09350586 C162.72540848 93.78922668 163.33362946 93.48494751 163.96028137 93.17144775 C165.19662492 92.5536179 166.43351711 91.93688479 167.67094421 91.32122803 C170.84879911 89.73837869 174.01432432 88.13640721 177.16333008 86.49682617 C177.78911957 86.17448502 178.41490906 85.85214386 179.05966187 85.52003479 C180.78609717 84.62982585 182.50830512 83.73143225 184.23022461 82.83251953 C190.14743941 80.26793832 194.8827063 80.79296288 200.92578125 82.56420898 C210.22073852 87.90020297 214.93205919 94.23629411 218.30078125 104.50170898 C219.6223012 111.09980137 218.05531647 116.12079583 215.17578125 122.07983398 C209.77304742 129.05836518 201.58579753 132.60339095 193.81542969 136.36669922 C190.69181155 137.87967567 187.58132028 139.41929459 184.46875 140.95483398 C183.85180267 141.25824707 183.23485535 141.56166016 182.59921265 141.87426758 C176.56846426 144.84609501 170.61929496 147.96104579 164.69018555 151.12963867 C160.49988253 153.36406687 156.27899393 155.52450982 152.02929688 157.64428711 C150.95474243 158.18057739 149.88018799 158.71686768 148.77307129 159.26940918 C147.95721558 159.67606812 147.14135986 160.08272705 146.30078125 160.50170898 C146.29935623 161.7684697 146.29793121 163.03523041 146.29646301 164.34037781 C146.27979929 176.2737905 146.23704452 188.20686193 146.16869068 200.1400938 C146.13438838 206.27524907 146.1093056 212.41015445 146.10522461 218.54541016 C146.10094872 224.46543942 146.07254405 230.38490469 146.02734947 236.30475807 C146.01435191 238.5641635 146.01007473 240.82363634 146.01462746 243.08307457 C146.01951716 246.24627081 145.99351169 249.40780831 145.96020508 252.57080078 C145.96883072 253.50659973 145.97745636 254.44239868 145.98634338 255.40655518 C145.9078143 259.85050995 145.73760515 261.90238351 143.05499268 265.58294678 C140.20252243 267.57016245 138.98521358 268.1286806 135.57397461 268.1328125 C134.66630844 268.14534561 133.75864227 268.15787872 132.82347107 268.17079163 C131.37171227 268.15090431 131.37171227 268.15090431 129.890625 268.13061523 C128.88616837 268.13302719 127.88171173 268.13543915 126.84681702 268.13792419 C124.72783451 268.1369465 122.60882621 268.12357165 120.48999023 268.09863281 C117.24570094 268.06428753 114.00413026 268.07798772 110.75976562 268.09741211 C108.69920715 268.09051458 106.63865571 268.08084305 104.578125 268.06811523 C103.60826157 268.0730751 102.63839813 268.07803497 101.6391449 268.08314514 C100.73463089 268.06730881 99.83011688 268.05147247 98.89819336 268.03515625 C97.70836098 268.02585838 97.70836098 268.02585838 96.49449158 268.01637268 C93.32697338 267.27324511 92.19919519 266.13134985 90.30078125 263.50170898 C89.78179932 260.21136475 89.78179932 260.21136475 89.75488281 256.25463867 C89.74454514 255.53229034 89.73420746 254.80994202 89.72355652 254.06570435 C89.69412463 251.68477012 89.69262935 249.30468583 89.69140625 246.92358398 C89.67642476 245.27018614 89.65969768 243.61680326 89.64129639 241.96343994 C89.59760667 237.61677361 89.57762032 233.27030916 89.56256104 228.92346191 C89.5429957 224.48588109 89.50102508 220.04851847 89.4609375 215.61108398 C89.38561787 206.90801605 89.33533719 198.20503377 89.30078125 189.50170898 C88.5369664 189.89634338 88.5369664 189.89634338 87.75772095 190.2989502 C82.47216542 193.028795 77.18372703 195.75299025 71.89355469 198.47387695 C69.91786908 199.49097473 67.94293095 200.50952579 65.96875 201.52954102 C63.13605434 202.99281603 60.30073883 204.45089641 57.46484375 205.90795898 C56.13509018 206.59698303 56.13509018 206.59698303 54.7784729 207.29992676 C53.95777313 207.72036255 53.13707336 208.14079834 52.29150391 208.57397461 C51.56758453 208.94703735 50.84366516 209.3201001 50.09780884 209.70446777 C48.30078125 210.50170898 48.30078125 210.50170898 46.30078125 210.50170898 C46.30446842 211.15346761 46.30815559 211.80522623 46.3119545 212.47673512 C46.40023844 228.32529155 46.466458 244.17376263 46.50802994 260.02250385 C46.52866748 267.68680456 46.55681057 275.35094127 46.60253906 283.01513672 C46.64237068 289.6941783 46.6682054 296.37310114 46.67713523 303.05225819 C46.68235631 306.58986716 46.69465173 310.12713639 46.72370148 313.66463661 C46.75584518 317.61079976 46.75674302 321.55662857 46.75488281 325.50292969 C46.76926392 326.67968765 46.78364502 327.85644562 46.79846191 329.06886292 C46.79296326 330.14158447 46.7874646 331.21430603 46.78179932 332.3195343 C46.78548649 333.25331059 46.78917366 334.18708689 46.79297256 335.14915943 C46.30078125 337.50170898 46.30078125 337.50170898 44.40824509 339.3013649 C41.96398644 340.69353655 40.48656504 340.88676827 37.6875 340.90576172 C36.32588745 340.92478798 36.32588745 340.92478798 34.93676758 340.94419861 C33.47726685 340.93979515 33.47726685 340.93979515 31.98828125 340.93530273 C30.98240967 340.94054459 29.97653809 340.94578644 28.94018555 340.95118713 C26.81527631 340.95760546 24.69033154 340.9562728 22.56542969 340.94775391 C19.31250882 340.93923968 16.06134133 340.96801574 12.80859375 340.99975586 C10.74349011 341.00136784 8.67838336 341.00079039 6.61328125 340.99780273 C5.64028076 341.00903671 4.66728027 341.02027069 3.66479492 341.03184509 C2.75705322 341.02246414 1.84931152 341.01308319 0.9140625 341.00341797 C-0.28029419 341.00316872 -0.28029419 341.00316872 -1.4987793 341.00291443 C-4.76517823 340.2589099 -5.80125286 339.27783992 -7.69921875 336.50170898 C-8.29597899 333.38442838 -8.26296046 330.30960772 -8.24511719 327.14331055 C-8.25545486 326.1966301 -8.26579254 325.24994965 -8.27644348 324.27458191 C-8.30592977 321.1469935 -8.30737191 318.02005062 -8.30859375 314.89233398 C-8.32357143 312.72327434 -8.3402977 310.55422613 -8.35870361 308.38519287 C-8.40243541 302.67730188 -8.42238925 296.96956473 -8.43743896 291.26153564 C-8.45698895 285.43655274 -8.49896135 279.6117365 -8.5390625 273.78686523 C-8.61442786 262.35853115 -8.66468111 250.93023426 -8.69921875 239.50170898 C-12.25759415 241.27231062 -15.81500913 243.04482648 -19.37159729 244.8190155 C-21.16704224 245.71418761 -22.96321359 246.60790231 -24.75939941 247.50158691 C-30.77925962 250.50570532 -36.74442907 253.56741061 -42.63671875 256.81420898 C-48.4262997 259.68040894 -53.30781434 260.89243124 -59.69921875 259.50170898 C-68.46160119 256.3267318 -73.47253155 250.3123828 -77.57421875 242.18920898 C-80.26291604 235.79918815 -81.06549538 230.46159548 -78.77734375 223.82983398 C-74.09446657 213.55183081 -66.3058206 210.04712876 -56.51171875 205.31420898 C-54.1684676 204.16349946 -51.82602489 203.01114228 -49.484375 201.85717773 C-47.75598389 201.00712158 -47.75598389 201.00712158 -45.99267578 200.13989258 C-41.4388984 197.87481873 -36.93902269 195.51550894 -32.44921875 193.12670898 C-26.86663247 190.16649889 -21.27683213 187.22615657 -15.63671875 184.37670898 C-13.97962891 183.5375293 -13.97962891 183.5375293 -12.2890625 182.68139648 C-9.69921875 181.50170898 -9.69921875 181.50170898 -7.69921875 181.50170898 C-7.70198413 180.59318554 -7.70474951 179.68466209 -7.70759869 178.74860764 C-7.77380861 156.65747712 -7.82347501 134.56636367 -7.85465527 112.47515488 C-7.870134 101.7920755 -7.89124276 91.1090623 -7.92553711 80.42602539 C-7.95540864 71.11631516 -7.97478643 61.80665285 -7.98148423 52.49689603 C-7.9854003 47.56597288 -7.9946245 42.63518683 -8.01640892 37.70430756 C-8.03673859 33.06521893 -8.04305969 28.42632415 -8.03854179 23.78719521 C-8.03936857 22.08277903 -8.04535517 20.37835652 -8.05683517 18.67397881 C-8.07172447 16.34985674 -8.06818576 14.02647003 -8.0599823 11.70233154 C-8.06274768 10.40075985 -8.06551306 9.09918816 -8.06836224 7.7581749 C-7.44481173 2.25741155 -5.52974104 0.0010978 0 0 Z " fill="#6FA5EF" transform="translate(180.69921875,79.498291015625)"/>
<path d="M0 0 C0.95108643 -0.00938095 1.90217285 -0.0187619 2.88208008 -0.02842712 C3.90712646 -0.01719315 4.93217285 -0.00595917 5.98828125 0.00561523 C7.56935669 0.00343239 7.56935669 0.00343239 9.18237305 0.00120544 C11.4116492 0.00286597 13.64093663 0.01444433 15.87011719 0.03515625 C19.28760338 0.06409739 22.70353793 0.05577059 26.12109375 0.04272461 C28.28516381 0.04896219 30.44922896 0.05735328 32.61328125 0.06811523 C33.63832764 0.0651796 34.66337402 0.06224396 35.71948242 0.05921936 C36.67056885 0.07190353 37.62165527 0.08458771 38.6015625 0.09765625 C39.85706909 0.10576073 39.85706909 0.10576073 41.13793945 0.11402893 C43.90532559 0.61007095 44.62132016 1.25709856 46.30078125 3.50170898 C46.66992474 6.21345806 46.66992474 6.21345806 46.6615448 9.55705261 C46.66566879 10.82329971 46.66979279 12.08954681 46.67404175 13.39416504 C46.66342428 14.80005095 46.65251985 16.20593472 46.64135742 17.61181641 C46.64051134 19.09007246 46.64098593 20.56832977 46.64268494 22.04658508 C46.64354705 26.06291832 46.62588648 30.07898376 46.60496306 34.09525466 C46.58623219 38.291298 46.58444866 42.48734721 46.58088684 46.6834259 C46.5715558 54.63072838 46.54692773 62.57790733 46.51683837 70.52515537 C46.48332727 79.57219379 46.46681664 88.61923805 46.45175207 97.66632307 C46.42037907 116.27818846 46.36759803 134.8899388 46.30078125 153.50170898 C43.31686606 155.07598703 40.33231304 156.64905228 37.34765625 158.22192383 C36.51476074 158.66136826 35.68186523 159.10081268 34.82373047 159.55357361 C27.37491327 163.47773031 19.88637307 167.31823253 12.36035156 171.09204102 C10.24127611 172.15660263 8.12660355 173.22963182 6.01171875 174.30249023 C4.64999956 174.98660171 3.28803068 175.67021647 1.92578125 176.35327148 C1.3009082 176.67188141 0.67603516 176.99049133 0.03222656 177.3187561 C-2.76252383 178.70888976 -4.52989754 179.50170898 -7.69921875 179.50170898 C-7.76925425 156.75364795 -7.82218015 134.00560465 -7.85465527 111.25745773 C-7.87013382 100.69544626 -7.89124224 90.13350172 -7.92553711 79.5715332 C-7.95540919 70.3672984 -7.97478656 61.16311205 -7.98148423 51.95883012 C-7.98540021 47.08379763 -7.99462381 42.20890382 -8.01640892 37.33391571 C-8.03673946 32.74735615 -8.04305951 28.16099266 -8.03854179 23.57439232 C-8.03936853 21.88932671 -8.04535462 20.20425468 -8.05683517 18.51922798 C-8.07172585 16.22137758 -8.06818528 13.92427084 -8.0599823 11.62640381 C-8.06274768 10.3395808 -8.06551306 9.0527578 -8.06836224 7.72694016 C-7.44064842 2.24256281 -5.50794454 0.00109348 0 0 Z " fill="#8075F8" transform="translate(180.69921875,79.498291015625)"/>
</svg>
