<svg width="20" height="20" viewBox="0 0 20 20" fill="none" xmlns="http://www.w3.org/2000/svg">
<path d="M18.3333 11.9625C18.3333 11.3442 17.8633 10.8408 17.2833 10.8408H8.89668C8.31668 10.8408 7.84668 11.3442 7.84668 11.9625C7.84668 12.5808 8.31585 13.0842 8.89668 13.0842H17.2833C17.8633 13.085 18.3333 12.5817 18.3333 11.9625Z" fill="#8036E7"/>
<path d="M2.76453 15.1557L5.95963 18.7898C6.68044 19.6057 7.67683 19.9998 8.77692 19.9998C9.87702 19.9998 10.8734 19.5732 11.5957 18.7548L13.5129 16.5573C13.8907 16.129 13.8774 15.4198 13.484 14.974C13.0906 14.5282 12.4654 14.5132 12.0883 14.9415L10.1059 17.114C9.76368 17.5032 9.28956 17.6657 8.76581 17.6657C8.24206 17.6657 7.76869 17.5032 7.42495 17.114L4.24096 13.4782C3.89797 13.089 3.72536 12.5198 3.72536 11.9257C3.72536 11.3315 3.89797 10.7948 4.24096 10.4057L7.41532 6.75568C7.75831 6.36651 8.24206 6.21818 8.76507 6.21818C9.28808 6.21818 9.7622 6.38068 10.1052 6.76985L12.0876 8.94151C12.4654 9.37068 13.0906 9.35568 13.484 8.90985C13.8774 8.46318 13.8907 7.75401 13.5129 7.32568L11.5957 5.12901C11.1149 4.59068 10.506 4.19901 9.82368 4.02068L9.7985 4.01485L11.6113 1.92901C11.9905 1.50068 11.9772 0.790681 11.5838 0.344848C11.1905 -0.100986 10.5645 -0.115152 10.1859 0.313181L2.76453 8.72985C2.04373 9.54818 1.66666 10.6773 1.66666 11.9257C1.66666 13.174 2.04373 14.339 2.76453 15.1557Z" fill="#8036E7"/>
</svg>
