<svg xmlns="http://www.w3.org/2000/svg" xmlns:xlink="http://www.w3.org/1999/xlink" viewBox="0,0,256,256" width="20px" height="20px"><g fill="#8036e7" fill-rule="nonzero" stroke="none" stroke-width="1" stroke-linecap="butt" stroke-linejoin="miter" stroke-miterlimit="10" stroke-dasharray="" stroke-dashoffset="0" font-family="none" font-weight="none" font-size="none" text-anchor="none" style="mix-blend-mode: normal"><g transform="scale(8,8)"><path d="M15.99805,3c-1.773,0 -10.46284,4.98391 -11.33984,6.50391c-0.878,1.521 -0.878,11.47914 0,12.99414c0.881,1.519 9.57084,6.50195 11.33984,6.50195c1.764,0 10.45389,-4.98005 11.33789,-6.49805c0.887,-1.522 0.887,-11.48791 0,-13.00391v-0.00195c-0.891,-1.517 -9.57989,-6.49609 -11.33789,-6.49609zM15.99609,5.01172c1.697,0.353 8.42161,4.20505 9.59961,5.49805c0.54,1.641 0.539,9.33451 0,10.97852c-1.17,1.291 -7.90061,5.148 -9.59961,5.5c-1.698,-0.35 -8.4237,-4.20505 -9.5957,-5.49805c-0.535,-1.648 -0.535,-9.33447 0,-10.98047c1.169,-1.293 7.8967,-5.14805 9.5957,-5.49805zM13,9l-2,2h1v10h2v-4h4v4h-1l2,2l2,-2h-1v-9h-2v3h-4v-4h1z"></path></g></g></svg>