<svg version="1.1" id="Layer_1" xmlns="http://www.w3.org/2000/svg" xmlns:xlink="http://www.w3.org/1999/xlink" x="0px" y="0px"
	 width="100%" viewBox="0 0 512 512" enable-background="new 0 0 512 512" xml:space="preserve">
<path fill="#000000" opacity="1.000000" stroke="none" 
	d="
M176.000000,1.000001 
	C288.292572,1.000000 400.585114,1.000000 512.938843,1.000000 
	C512.938843,171.563950 512.938843,342.127930 512.938843,513.000000 
	C400.976868,513.000000 288.953430,513.000000 176.164764,512.642944 
	C178.305649,511.523804 181.190842,510.667847 184.121170,510.014130 
	C209.133865,504.434296 231.535828,493.355011 250.741501,476.547394 
	C267.557770,461.830780 280.867432,444.243866 289.941071,423.553589 
	C298.533020,403.961761 302.788269,383.431274 302.885193,362.241974 
	C303.194672,294.601471 303.076447,226.958527 302.911316,159.317032 
	C302.888550,149.985077 301.682587,140.655045 300.999939,131.325912 
	C299.819305,115.191292 294.746124,100.051247 287.798401,85.705605 
	C278.247101,65.984123 264.775482,49.146530 247.735626,35.143280 
	C227.103119,18.187622 203.831421,7.274415 177.471664,2.916024 
	C176.891373,2.820079 176.486633,1.662403 176.000000,1.000001 
z"/>
<path fill="#FFFFFF" opacity="1.000000" stroke="none" 
	d="
M175.531342,1.000001 
	C176.486633,1.662403 176.891373,2.820079 177.471664,2.916024 
	C203.831421,7.274415 227.103119,18.187622 247.735626,35.143280 
	C264.775482,49.146530 278.247101,65.984123 287.798401,85.705605 
	C294.746124,100.051247 299.819305,115.191292 300.999939,131.325912 
	C301.682587,140.655045 302.888550,149.985077 302.911316,159.317032 
	C303.076447,226.958527 303.194672,294.601471 302.885193,362.241974 
	C302.788269,383.431274 298.533020,403.961761 289.941071,423.553589 
	C280.867432,444.243866 267.557770,461.830780 250.741501,476.547394 
	C231.535828,493.355011 209.133865,504.434296 184.121170,510.014130 
	C181.190842,510.667847 178.305649,511.523804 175.699768,512.642944 
	C159.979111,513.000000 143.958206,513.000000 127.768028,512.647278 
	C126.771294,511.863861 125.989128,511.244171 125.109009,511.033356 
	C119.637085,509.722534 114.061043,508.783478 108.671555,507.202789 
	C90.427643,501.851959 73.944252,493.242584 58.817642,481.544708 
	C42.791801,469.151428 29.956297,454.240631 20.040155,436.772980 
	C11.495548,421.721344 5.327612,405.731262 2.913994,388.446655 
	C2.835743,387.886292 1.662689,387.478790 0.999995,387.000000 
	C1.000000,300.645782 1.000000,214.291550 1.421048,127.462158 
	C2.894171,123.081024 4.026407,119.194633 4.985806,115.266029 
	C13.695024,79.603004 33.277924,50.980553 62.545639,29.350437 
	C81.205048,15.560324 102.237274,6.274258 125.529198,2.914170 
	C126.099640,2.831877 126.513245,1.662407 127.000000,1.000000 
	C143.020889,1.000000 159.041794,1.000000 175.531342,1.000001 
M271.000000,193.500000 
	C271.000000,179.338562 270.974854,165.177063 271.007660,151.015701 
	C271.035767,138.884888 268.948608,127.110748 265.208893,115.602455 
	C257.302643,91.272392 243.176834,71.481171 222.662125,56.066822 
	C202.071289,40.595284 178.837982,32.884266 153.368790,32.193935 
	C144.831116,31.962526 136.165848,33.604069 127.674080,35.060795 
	C104.867432,38.973171 85.276413,49.743797 69.071030,65.836357 
	C60.883144,73.967232 54.282085,83.892662 47.939819,93.641808 
	C37.004692,110.450958 32.301186,129.572769 32.172741,149.298584 
	C31.725786,217.939423 31.976896,286.584991 32.043190,355.228668 
	C32.048584,360.811798 32.761223,366.390564 32.980125,371.977844 
	C33.677605,389.780731 39.424244,406.055511 48.070461,421.389679 
	C59.808262,442.206818 76.555717,458.189423 97.768478,468.784821 
	C117.548065,478.664337 138.573181,483.435791 161.172058,481.248657 
	C175.580811,479.854156 189.111389,476.282074 202.053009,470.357422 
	C220.766403,461.790466 236.189713,448.925507 248.213409,432.218719 
	C262.542480,412.308685 270.724213,390.004486 270.882843,365.442169 
	C271.250916,308.463562 271.000000,251.480972 271.000000,193.500000 
z"/>
<path fill="#000000" opacity="1.000000" stroke="none" 
	d="
M0.999995,387.468658 
	C1.662689,387.478790 2.835743,387.886292 2.913994,388.446655 
	C5.327612,405.731262 11.495548,421.721344 20.040155,436.772980 
	C29.956297,454.240631 42.791801,469.151428 58.817642,481.544708 
	C73.944252,493.242584 90.427643,501.851959 108.671555,507.202789 
	C114.061043,508.783478 119.637085,509.722534 125.109009,511.033356 
	C125.989128,511.244171 126.771294,511.863861 127.299370,512.647278 
	C85.073029,513.000000 43.146057,513.000000 1.000000,513.000000 
	C1.000000,471.312683 1.000000,429.625000 0.999995,387.468658 
z"/>
<path fill="#000000" opacity="1.000000" stroke="none" 
	d="
M126.531342,1.000000 
	C126.513245,1.662407 126.099640,2.831877 125.529198,2.914170 
	C102.237274,6.274258 81.205048,15.560324 62.545639,29.350437 
	C33.277924,50.980553 13.695024,79.603004 4.985806,115.266029 
	C4.026407,119.194633 2.894171,123.081024 1.421048,126.993500 
	C1.000000,85.073029 1.000000,43.146053 1.000000,1.000000 
	C42.687305,1.000000 84.374992,1.000000 126.531342,1.000000 
z"/>
<path fill="#000000" opacity="1.000000" stroke="none" 
	d="
M271.000000,194.000000 
	C271.000000,251.480972 271.250916,308.463562 270.882843,365.442169 
	C270.724213,390.004486 262.542480,412.308685 248.213409,432.218719 
	C236.189713,448.925507 220.766403,461.790466 202.053009,470.357422 
	C189.111389,476.282074 175.580811,479.854156 161.172058,481.248657 
	C138.573181,483.435791 117.548065,478.664337 97.768478,468.784821 
	C76.555717,458.189423 59.808262,442.206818 48.070461,421.389679 
	C39.424244,406.055511 33.677605,389.780731 32.980125,371.977844 
	C32.761223,366.390564 32.048584,360.811798 32.043190,355.228668 
	C31.976896,286.584991 31.725786,217.939423 32.172741,149.298584 
	C32.301186,129.572769 37.004692,110.450958 47.939819,93.641808 
	C54.282085,83.892662 60.883144,73.967232 69.071030,65.836357 
	C85.276413,49.743797 104.867432,38.973171 127.674080,35.060795 
	C136.165848,33.604069 144.831116,31.962526 153.368790,32.193935 
	C178.837982,32.884266 202.071289,40.595284 222.662125,56.066822 
	C243.176834,71.481171 257.302643,91.272392 265.208893,115.602455 
	C268.948608,127.110748 271.035767,138.884888 271.007660,151.015701 
	C270.974854,165.177063 271.000000,179.338562 271.000000,194.000000 
M139.966415,199.446716 
	C144.836960,204.960007 150.916321,206.388535 157.545670,203.693604 
	C163.422134,201.304718 167.153625,196.829956 167.077209,188.462387 
	C166.858063,164.467194 167.007263,140.468719 166.982147,116.471542 
	C166.980621,115.015030 167.013474,113.453331 166.531708,112.120850 
	C164.554688,106.652809 155.180283,101.026283 149.994064,102.023987 
	C141.497696,103.658485 136.005203,109.753174 136.002716,117.593468 
	C135.995193,141.257355 135.862427,164.922928 136.151550,188.583298 
	C136.193863,192.046448 138.267776,195.484772 139.966415,199.446716 
z"/>
<path fill="#FFFFFF" opacity="1.000000" stroke="none" 
	d="
M139.684036,199.190643 
	C138.267776,195.484772 136.193863,192.046448 136.151550,188.583298 
	C135.862427,164.922928 135.995193,141.257355 136.002716,117.593468 
	C136.005203,109.753174 141.497696,103.658485 149.994064,102.023987 
	C155.180283,101.026283 164.554688,106.652809 166.531708,112.120850 
	C167.013474,113.453331 166.980621,115.015030 166.982147,116.471542 
	C167.007263,140.468719 166.858063,164.467194 167.077209,188.462387 
	C167.153625,196.829956 163.422134,201.304718 157.545670,203.693604 
	C150.916321,206.388535 144.836960,204.960007 139.684036,199.190643 
z"/>
</svg>