<svg width="48" height="48" viewBox="0 0 48 48" fill="none" xmlns="http://www.w3.org/2000/svg">
<g clip-path="url(#clip0_16_5)">
<path d="M16.4561 0.120361C16.5456 0.182462 16.5836 0.290994 16.638 0.299989C19.1092 0.708589 21.2909 1.7317 23.2252 3.3213C24.8227 4.63411 26.0857 6.21264 26.9811 8.06153C27.6325 9.40644 28.1081 10.8258 28.2188 12.3384C28.2827 13.2131 28.3958 14.0877 28.3979 14.9626C28.4134 21.304 28.4245 27.6456 28.3955 33.9869C28.3864 35.9734 27.9875 37.8981 27.182 39.7349C26.3313 41.6746 25.0835 43.3233 23.507 44.703C21.7065 46.2788 19.6063 47.3174 17.2614 47.8405C16.9866 47.9018 16.7162 47.9821 16.4719 48.087C14.998 48.1205 13.4961 48.1205 11.9783 48.0874C11.8848 48.014 11.8115 47.9559 11.729 47.9361C11.216 47.8132 10.6932 47.7252 10.188 47.577C8.47759 47.0753 6.93228 46.2682 5.51416 45.1715C4.01173 44.0097 2.8084 42.6118 1.87877 40.9742C1.07771 39.5631 0.499464 38.064 0.273187 36.4436C0.265851 36.391 0.155878 36.3528 0.09375 36.3079C0.0937505 28.2122 0.0937505 20.1165 0.133224 11.9762C0.271329 11.5655 0.377476 11.2011 0.46742 10.8328C1.28391 7.48941 3.11981 4.80605 5.86366 2.77822C7.61298 1.48539 9.58475 0.614824 11.7684 0.299815C11.8218 0.2921 11.8606 0.182462 11.9063 0.120361C13.4082 0.120361 14.9102 0.120361 16.4561 0.120361ZM25.4063 18.1673C25.4063 16.8396 25.4039 15.512 25.407 14.1844C25.4096 13.0471 25.2139 11.9433 24.8633 10.8644C24.1221 8.58342 22.7978 6.72799 20.8746 5.28289C18.9442 3.83243 16.7661 3.10952 14.3783 3.0448C13.5779 3.02311 12.7656 3.177 11.9694 3.31357C9.83132 3.68035 7.99467 4.6901 6.47541 6.19878C5.7078 6.96106 5.08895 7.89157 4.49436 8.80555C3.46919 10.3814 3.02824 12.1741 3.0162 14.0234C2.97429 20.4585 2.99784 26.894 3.00405 33.3294C3.00456 33.8528 3.07137 34.3758 3.09189 34.8996C3.15728 36.5686 3.69602 38.0944 4.50661 39.532C5.60703 41.4836 7.1771 42.982 9.1658 43.9753C11.0201 44.9015 12.9912 45.3488 15.1099 45.1438C16.4607 45.013 17.7292 44.6782 18.9425 44.1227C20.6969 43.3196 22.1428 42.1135 23.27 40.5472C24.6134 38.6806 25.3804 36.5896 25.3953 34.2869C25.4298 28.9451 25.4063 23.603 25.4063 18.1673Z" fill="white"/>
<path d="M13.0954 18.6741C12.9626 18.3267 12.7682 18.0043 12.7642 17.6797C12.7371 15.4615 12.7496 13.2429 12.7503 11.0244C12.7505 10.2894 13.2654 9.71798 14.0619 9.56475C14.5482 9.47121 15.427 9.9987 15.6123 10.5113C15.6575 10.6362 15.6544 10.7827 15.6546 10.9192C15.6569 13.1689 15.6429 15.4188 15.6635 17.6683C15.6707 18.4528 15.3208 18.8723 14.7699 19.0963C14.1484 19.3489 13.5785 19.215 13.0954 18.6741Z" fill="white"/>
</g>
<defs>
<clipPath id="clip0_16_5">
<rect width="48" height="48" fill="white"/>
</clipPath>
</defs>
</svg>
